<svg xmlns="http://www.w3.org/2000/svg" xmlns:xlink="http://www.w3.org/1999/xlink" width="500" zoomAndPan="magnify" viewBox="0 0 375 374.999991" height="500" preserveAspectRatio="xMidYMid meet" version="1.2"><defs><clipPath id="18b3a0f4f4"><path d="M 247 124.890625 L 262 124.890625 L 262 139 L 247 139 Z M 247 124.890625 "/></clipPath><clipPath id="48ab8baaa8"><path d="M 138 214 L 153 214 L 153 228.390625 L 138 228.390625 Z M 138 214 "/></clipPath><clipPath id="927df9d530"><path d="M 125.121094 190 L 139 190 L 139 204 L 125.121094 204 Z M 125.121094 190 "/></clipPath><clipPath id="e47480df76"><path d="M 156.371094 129.332031 L 169.496094 129.332031 L 169.496094 140.535156 L 156.371094 140.535156 Z M 156.371094 129.332031 "/></clipPath><clipPath id="b606fe00af"><path d="M 162.933594 129.332031 L 169.496094 140.535156 L 156.371094 140.535156 Z M 162.933594 129.332031 "/></clipPath></defs><g id="de63cfebbc"><g style="fill:#f8f7ff;fill-opacity:1;"><g transform="translate(231.512084, 203.482707)"><path style="stroke:none" d="M 7.0625 0 L 1.390625 0 L 1.390625 -16 L 7.109375 -16 C 8.722656 -16 10.109375 -15.679688 11.265625 -15.046875 C 12.429688 -14.410156 13.328125 -13.492188 13.953125 -12.296875 C 14.578125 -11.109375 14.890625 -9.679688 14.890625 -8.015625 C 14.890625 -6.347656 14.578125 -4.914062 13.953125 -3.71875 C 13.328125 -2.519531 12.425781 -1.597656 11.25 -0.953125 C 10.082031 -0.316406 8.6875 0 7.0625 0 Z M 4.78125 -2.90625 L 6.921875 -2.90625 C 8.429688 -2.90625 9.570312 -3.3125 10.34375 -4.125 C 11.125 -4.9375 11.515625 -6.234375 11.515625 -8.015625 C 11.515625 -9.796875 11.125 -11.085938 10.34375 -11.890625 C 9.570312 -12.703125 8.4375 -13.109375 6.9375 -13.109375 L 4.78125 -13.109375 Z M 4.78125 -2.90625 "/></g></g><g style="fill:#f8f7ff;fill-opacity:1;"><g transform="translate(247.509276, 203.482707)"><path style="stroke:none" d="M 1.328125 0 L 1.328125 -12 L 4.65625 -12 L 4.65625 0 Z M 3 -13.546875 C 2.507812 -13.546875 2.085938 -13.710938 1.734375 -14.046875 C 1.378906 -14.378906 1.203125 -14.773438 1.203125 -15.234375 C 1.203125 -15.703125 1.378906 -16.097656 1.734375 -16.421875 C 2.085938 -16.753906 2.507812 -16.921875 3 -16.921875 C 3.5 -16.921875 3.925781 -16.753906 4.28125 -16.421875 C 4.632812 -16.097656 4.8125 -15.703125 4.8125 -15.234375 C 4.8125 -14.773438 4.632812 -14.378906 4.28125 -14.046875 C 3.925781 -13.710938 3.5 -13.546875 3 -13.546875 Z M 3 -13.546875 "/></g></g><g style="fill:#f8f7ff;fill-opacity:1;"><g transform="translate(253.492601, 203.482707)"><path style="stroke:none" d="M 6.734375 4.671875 C 5.117188 4.671875 3.847656 4.351562 2.921875 3.71875 C 2.003906 3.082031 1.445312 2.3125 1.25 1.40625 L 4.328125 1 C 4.460938 1.320312 4.726562 1.613281 5.125 1.875 C 5.519531 2.144531 6.082031 2.28125 6.8125 2.28125 C 7.539062 2.28125 8.140625 2.109375 8.609375 1.765625 C 9.078125 1.421875 9.3125 0.859375 9.3125 0.078125 L 9.3125 -2.125 L 9.171875 -2.125 C 8.953125 -1.632812 8.566406 -1.1875 8.015625 -0.78125 C 7.460938 -0.375 6.707031 -0.171875 5.75 -0.171875 C 4.851562 -0.171875 4.035156 -0.378906 3.296875 -0.796875 C 2.554688 -1.222656 1.96875 -1.867188 1.53125 -2.734375 C 1.101562 -3.597656 0.890625 -4.695312 0.890625 -6.03125 C 0.890625 -7.394531 1.109375 -8.53125 1.546875 -9.4375 C 1.992188 -10.34375 2.585938 -11.019531 3.328125 -11.46875 C 4.066406 -11.925781 4.875 -12.15625 5.75 -12.15625 C 6.414062 -12.15625 6.972656 -12.039062 7.421875 -11.8125 C 7.878906 -11.59375 8.25 -11.316406 8.53125 -10.984375 C 8.8125 -10.648438 9.023438 -10.316406 9.171875 -9.984375 L 9.296875 -9.984375 L 9.296875 -12 L 12.609375 -12 L 12.609375 0.125 C 12.609375 1.113281 12.351562 1.945312 11.84375 2.625 C 11.34375 3.300781 10.648438 3.8125 9.765625 4.15625 C 8.890625 4.5 7.878906 4.671875 6.734375 4.671875 Z M 6.8125 -2.671875 C 7.613281 -2.671875 8.234375 -2.96875 8.671875 -3.5625 C 9.109375 -4.15625 9.328125 -4.984375 9.328125 -6.046875 C 9.328125 -7.097656 9.109375 -7.9375 8.671875 -8.5625 C 8.234375 -9.195312 7.613281 -9.515625 6.8125 -9.515625 C 5.988281 -9.515625 5.359375 -9.191406 4.921875 -8.546875 C 4.492188 -7.898438 4.28125 -7.066406 4.28125 -6.046875 C 4.28125 -5.003906 4.492188 -4.179688 4.921875 -3.578125 C 5.359375 -2.972656 5.988281 -2.671875 6.8125 -2.671875 Z M 6.8125 -2.671875 "/></g></g><g style="fill:#f8f7ff;fill-opacity:1;"><g transform="translate(267.419842, 203.482707)"><path style="stroke:none" d="M 1.328125 0 L 1.328125 -12 L 4.65625 -12 L 4.65625 0 Z M 3 -13.546875 C 2.507812 -13.546875 2.085938 -13.710938 1.734375 -14.046875 C 1.378906 -14.378906 1.203125 -14.773438 1.203125 -15.234375 C 1.203125 -15.703125 1.378906 -16.097656 1.734375 -16.421875 C 2.085938 -16.753906 2.507812 -16.921875 3 -16.921875 C 3.5 -16.921875 3.925781 -16.753906 4.28125 -16.421875 C 4.632812 -16.097656 4.8125 -15.703125 4.8125 -15.234375 C 4.8125 -14.773438 4.632812 -14.378906 4.28125 -14.046875 C 3.925781 -13.710938 3.5 -13.546875 3 -13.546875 Z M 3 -13.546875 "/></g></g><g style="fill:#f8f7ff;fill-opacity:1;"><g transform="translate(273.403168, 203.482707)"><path style="stroke:none" d="M 7.71875 -12 L 7.71875 -9.5 L 5.453125 -9.5 L 5.453125 -3.6875 C 5.453125 -3.226562 5.554688 -2.914062 5.765625 -2.75 C 5.972656 -2.59375 6.242188 -2.515625 6.578125 -2.515625 C 6.734375 -2.515625 6.890625 -2.53125 7.046875 -2.5625 C 7.203125 -2.59375 7.320312 -2.613281 7.40625 -2.625 L 7.9375 -0.15625 C 7.769531 -0.101562 7.535156 -0.0390625 7.234375 0.03125 C 6.929688 0.101562 6.5625 0.148438 6.125 0.171875 C 4.914062 0.222656 3.945312 -0.0351562 3.21875 -0.609375 C 2.488281 -1.191406 2.125 -2.070312 2.125 -3.25 L 2.125 -9.5 L 0.484375 -9.5 L 0.484375 -12 L 2.125 -12 L 2.125 -14.875 L 5.453125 -14.875 L 5.453125 -12 Z M 7.71875 -12 "/></g></g><g style="fill:#f8f7ff;fill-opacity:1;"><g transform="translate(281.948539, 203.482707)"><path style="stroke:none" d="M 4.75 0.234375 C 3.601562 0.234375 2.648438 -0.0664062 1.890625 -0.671875 C 1.140625 -1.273438 0.765625 -2.171875 0.765625 -3.359375 C 0.765625 -4.253906 0.972656 -4.957031 1.390625 -5.46875 C 1.816406 -5.976562 2.375 -6.347656 3.0625 -6.578125 C 3.75 -6.816406 4.488281 -6.972656 5.28125 -7.046875 C 6.320312 -7.148438 7.066406 -7.257812 7.515625 -7.375 C 7.960938 -7.488281 8.1875 -7.738281 8.1875 -8.125 L 8.1875 -8.171875 C 8.1875 -8.671875 8.03125 -9.054688 7.71875 -9.328125 C 7.40625 -9.597656 6.96875 -9.734375 6.40625 -9.734375 C 5.800781 -9.734375 5.320312 -9.601562 4.96875 -9.34375 C 4.613281 -9.082031 4.378906 -8.75 4.265625 -8.34375 L 1.1875 -8.59375 C 1.414062 -9.6875 1.984375 -10.550781 2.890625 -11.1875 C 3.804688 -11.832031 4.984375 -12.15625 6.421875 -12.15625 C 7.304688 -12.15625 8.132812 -12.015625 8.90625 -11.734375 C 9.6875 -11.453125 10.316406 -11.015625 10.796875 -10.421875 C 11.273438 -9.828125 11.515625 -9.050781 11.515625 -8.09375 L 11.515625 0 L 8.359375 0 L 8.359375 -1.671875 L 8.265625 -1.671875 C 7.972656 -1.109375 7.535156 -0.648438 6.953125 -0.296875 C 6.367188 0.0546875 5.632812 0.234375 4.75 0.234375 Z M 5.703125 -2.078125 C 6.429688 -2.078125 7.03125 -2.285156 7.5 -2.703125 C 7.96875 -3.128906 8.203125 -3.660156 8.203125 -4.296875 L 8.203125 -5.5625 C 8.078125 -5.476562 7.875 -5.398438 7.59375 -5.328125 C 7.320312 -5.265625 7.03125 -5.207031 6.71875 -5.15625 C 6.414062 -5.101562 6.140625 -5.0625 5.890625 -5.03125 C 5.304688 -4.945312 4.835938 -4.78125 4.484375 -4.53125 C 4.128906 -4.289062 3.953125 -3.9375 3.953125 -3.46875 C 3.953125 -3.007812 4.113281 -2.660156 4.4375 -2.421875 C 4.769531 -2.191406 5.191406 -2.078125 5.703125 -2.078125 Z M 5.703125 -2.078125 "/></g></g><g style="fill:#f8f7ff;fill-opacity:1;"><g transform="translate(294.711928, 203.482707)"><path style="stroke:none" d="M 4.65625 -16 L 4.65625 0 L 1.328125 0 L 1.328125 -16 Z M 4.65625 -16 "/></g></g><g style="fill:#f8f7ff;fill-opacity:1;"><g transform="translate(215.293335, 234.232705)"><path style="stroke:none" d="M 10.078125 -11.40625 C 10.015625 -12.03125 9.742188 -12.515625 9.265625 -12.859375 C 8.785156 -13.210938 8.144531 -13.390625 7.34375 -13.390625 C 6.507812 -13.390625 5.867188 -13.21875 5.421875 -12.875 C 4.984375 -12.539062 4.765625 -12.117188 4.765625 -11.609375 C 4.753906 -11.035156 5 -10.597656 5.5 -10.296875 C 6.007812 -10.003906 6.609375 -9.78125 7.296875 -9.625 L 8.734375 -9.28125 C 9.660156 -9.070312 10.484375 -8.769531 11.203125 -8.375 C 11.929688 -7.976562 12.5 -7.46875 12.90625 -6.84375 C 13.320312 -6.21875 13.53125 -5.460938 13.53125 -4.578125 C 13.53125 -3.109375 12.984375 -1.9375 11.890625 -1.0625 C 10.796875 -0.195312 9.273438 0.234375 7.328125 0.234375 C 5.378906 0.234375 3.828125 -0.207031 2.671875 -1.09375 C 1.515625 -1.988281 0.914062 -3.300781 0.875 -5.03125 L 4.15625 -5.03125 C 4.207031 -4.226562 4.519531 -3.625 5.09375 -3.21875 C 5.675781 -2.8125 6.40625 -2.609375 7.28125 -2.609375 C 8.144531 -2.609375 8.832031 -2.789062 9.34375 -3.15625 C 9.851562 -3.519531 10.113281 -3.992188 10.125 -4.578125 C 10.113281 -5.117188 9.875 -5.535156 9.40625 -5.828125 C 8.9375 -6.117188 8.269531 -6.367188 7.40625 -6.578125 L 5.65625 -7.015625 C 4.3125 -7.335938 3.25 -7.847656 2.46875 -8.546875 C 1.6875 -9.253906 1.296875 -10.195312 1.296875 -11.375 C 1.296875 -12.34375 1.554688 -13.191406 2.078125 -13.921875 C 2.597656 -14.648438 3.316406 -15.210938 4.234375 -15.609375 C 5.148438 -16.015625 6.191406 -16.21875 7.359375 -16.21875 C 8.546875 -16.21875 9.582031 -16.015625 10.46875 -15.609375 C 11.363281 -15.203125 12.054688 -14.632812 12.546875 -13.90625 C 13.046875 -13.1875 13.300781 -12.351562 13.3125 -11.40625 Z M 10.078125 -11.40625 "/></g></g><g style="fill:#f8f7ff;fill-opacity:1;"><g transform="translate(229.697051, 234.232705)"><path style="stroke:none" d="M 6.75 0.234375 C 5.539062 0.234375 4.492188 -0.0234375 3.609375 -0.546875 C 2.722656 -1.066406 2.039062 -1.789062 1.5625 -2.71875 C 1.082031 -3.644531 0.84375 -4.722656 0.84375 -5.953125 C 0.84375 -7.191406 1.082031 -8.273438 1.5625 -9.203125 C 2.039062 -10.140625 2.722656 -10.863281 3.609375 -11.375 C 4.492188 -11.894531 5.539062 -12.15625 6.75 -12.15625 C 7.96875 -12.15625 9.015625 -11.894531 9.890625 -11.375 C 10.773438 -10.863281 11.457031 -10.140625 11.9375 -9.203125 C 12.414062 -8.273438 12.65625 -7.191406 12.65625 -5.953125 C 12.65625 -4.722656 12.414062 -3.644531 11.9375 -2.71875 C 11.457031 -1.789062 10.773438 -1.066406 9.890625 -0.546875 C 9.015625 -0.0234375 7.96875 0.234375 6.75 0.234375 Z M 6.765625 -2.34375 C 7.585938 -2.34375 8.210938 -2.6875 8.640625 -3.375 C 9.066406 -4.0625 9.28125 -4.929688 9.28125 -5.984375 C 9.28125 -7.023438 9.066406 -7.890625 8.640625 -8.578125 C 8.210938 -9.273438 7.585938 -9.625 6.765625 -9.625 C 5.929688 -9.625 5.300781 -9.273438 4.875 -8.578125 C 4.445312 -7.890625 4.234375 -7.023438 4.234375 -5.984375 C 4.234375 -4.929688 4.445312 -4.0625 4.875 -3.375 C 5.300781 -2.6875 5.929688 -2.34375 6.765625 -2.34375 Z M 6.765625 -2.34375 "/></g></g><g style="fill:#f8f7ff;fill-opacity:1;"><g transform="translate(243.194681, 234.232705)"><path style="stroke:none" d="M 4.65625 -16 L 4.65625 0 L 1.328125 0 L 1.328125 -16 Z M 4.65625 -16 "/></g></g><g style="fill:#f8f7ff;fill-opacity:1;"><g transform="translate(249.178007, 234.232705)"><path style="stroke:none" d="M 9.03125 -5.109375 L 9.03125 -12 L 12.359375 -12 L 12.359375 0 L 9.15625 0 L 9.15625 -2.1875 L 9.03125 -2.1875 C 8.757812 -1.476562 8.3125 -0.910156 7.6875 -0.484375 C 7.0625 -0.0546875 6.296875 0.15625 5.390625 0.15625 C 4.179688 0.15625 3.203125 -0.242188 2.453125 -1.046875 C 1.710938 -1.859375 1.335938 -2.960938 1.328125 -4.359375 L 1.328125 -12 L 4.65625 -12 L 4.65625 -4.953125 C 4.664062 -4.242188 4.859375 -3.679688 5.234375 -3.265625 C 5.609375 -2.859375 6.109375 -2.65625 6.734375 -2.65625 C 7.335938 -2.65625 7.867188 -2.863281 8.328125 -3.28125 C 8.796875 -3.695312 9.03125 -4.304688 9.03125 -5.109375 Z M 9.03125 -5.109375 "/></g></g><g style="fill:#f8f7ff;fill-opacity:1;"><g transform="translate(262.855298, 234.232705)"><path style="stroke:none" d="M 7.71875 -12 L 7.71875 -9.5 L 5.453125 -9.5 L 5.453125 -3.6875 C 5.453125 -3.226562 5.554688 -2.914062 5.765625 -2.75 C 5.972656 -2.59375 6.242188 -2.515625 6.578125 -2.515625 C 6.734375 -2.515625 6.890625 -2.53125 7.046875 -2.5625 C 7.203125 -2.59375 7.320312 -2.613281 7.40625 -2.625 L 7.9375 -0.15625 C 7.769531 -0.101562 7.535156 -0.0390625 7.234375 0.03125 C 6.929688 0.101562 6.5625 0.148438 6.125 0.171875 C 4.914062 0.222656 3.945312 -0.0351562 3.21875 -0.609375 C 2.488281 -1.191406 2.125 -2.070312 2.125 -3.25 L 2.125 -9.5 L 0.484375 -9.5 L 0.484375 -12 L 2.125 -12 L 2.125 -14.875 L 5.453125 -14.875 L 5.453125 -12 Z M 7.71875 -12 "/></g></g><g style="fill:#f8f7ff;fill-opacity:1;"><g transform="translate(271.400669, 234.232705)"><path style="stroke:none" d="M 1.328125 0 L 1.328125 -12 L 4.65625 -12 L 4.65625 0 Z M 3 -13.546875 C 2.507812 -13.546875 2.085938 -13.710938 1.734375 -14.046875 C 1.378906 -14.378906 1.203125 -14.773438 1.203125 -15.234375 C 1.203125 -15.703125 1.378906 -16.097656 1.734375 -16.421875 C 2.085938 -16.753906 2.507812 -16.921875 3 -16.921875 C 3.5 -16.921875 3.925781 -16.753906 4.28125 -16.421875 C 4.632812 -16.097656 4.8125 -15.703125 4.8125 -15.234375 C 4.8125 -14.773438 4.632812 -14.378906 4.28125 -14.046875 C 3.925781 -13.710938 3.5 -13.546875 3 -13.546875 Z M 3 -13.546875 "/></g></g><g style="fill:#f8f7ff;fill-opacity:1;"><g transform="translate(277.383995, 234.232705)"><path style="stroke:none" d="M 6.75 0.234375 C 5.539062 0.234375 4.492188 -0.0234375 3.609375 -0.546875 C 2.722656 -1.066406 2.039062 -1.789062 1.5625 -2.71875 C 1.082031 -3.644531 0.84375 -4.722656 0.84375 -5.953125 C 0.84375 -7.191406 1.082031 -8.273438 1.5625 -9.203125 C 2.039062 -10.140625 2.722656 -10.863281 3.609375 -11.375 C 4.492188 -11.894531 5.539062 -12.15625 6.75 -12.15625 C 7.96875 -12.15625 9.015625 -11.894531 9.890625 -11.375 C 10.773438 -10.863281 11.457031 -10.140625 11.9375 -9.203125 C 12.414062 -8.273438 12.65625 -7.191406 12.65625 -5.953125 C 12.65625 -4.722656 12.414062 -3.644531 11.9375 -2.71875 C 11.457031 -1.789062 10.773438 -1.066406 9.890625 -0.546875 C 9.015625 -0.0234375 7.96875 0.234375 6.75 0.234375 Z M 6.765625 -2.34375 C 7.585938 -2.34375 8.210938 -2.6875 8.640625 -3.375 C 9.066406 -4.0625 9.28125 -4.929688 9.28125 -5.984375 C 9.28125 -7.023438 9.066406 -7.890625 8.640625 -8.578125 C 8.210938 -9.273438 7.585938 -9.625 6.765625 -9.625 C 5.929688 -9.625 5.300781 -9.273438 4.875 -8.578125 C 4.445312 -7.890625 4.234375 -7.023438 4.234375 -5.984375 C 4.234375 -4.929688 4.445312 -4.0625 4.875 -3.375 C 5.300781 -2.6875 5.929688 -2.34375 6.765625 -2.34375 Z M 6.765625 -2.34375 "/></g></g><g style="fill:#f8f7ff;fill-opacity:1;"><g transform="translate(290.881625, 234.232705)"><path style="stroke:none" d="M 4.65625 -6.9375 L 4.65625 0 L 1.328125 0 L 1.328125 -12 L 4.5 -12 L 4.5 -9.890625 L 4.640625 -9.890625 C 4.910156 -10.585938 5.359375 -11.140625 5.984375 -11.546875 C 6.609375 -11.953125 7.363281 -12.15625 8.25 -12.15625 C 9.5 -12.15625 10.5 -11.753906 11.25 -10.953125 C 12.007812 -10.148438 12.390625 -9.046875 12.390625 -7.640625 L 12.390625 0 L 9.0625 0 L 9.0625 -7.046875 C 9.070312 -7.785156 8.882812 -8.359375 8.5 -8.765625 C 8.125 -9.179688 7.601562 -9.390625 6.9375 -9.390625 C 6.257812 -9.390625 5.710938 -9.175781 5.296875 -8.75 C 4.878906 -8.320312 4.664062 -7.71875 4.65625 -6.9375 Z M 4.65625 -6.9375 "/></g></g><g style="fill:#f8f7ff;fill-opacity:1;"><g transform="translate(304.558915, 234.232705)"><path style="stroke:none" d="M 11.3125 -8.578125 L 8.265625 -8.390625 C 8.179688 -8.773438 7.96875 -9.101562 7.625 -9.375 C 7.289062 -9.65625 6.835938 -9.796875 6.265625 -9.796875 C 5.742188 -9.796875 5.304688 -9.6875 4.953125 -9.46875 C 4.597656 -9.257812 4.421875 -8.972656 4.421875 -8.609375 C 4.421875 -8.328125 4.535156 -8.085938 4.765625 -7.890625 C 4.992188 -7.691406 5.390625 -7.53125 5.953125 -7.40625 L 8.125 -6.96875 C 10.425781 -6.5 11.582031 -5.414062 11.59375 -3.71875 C 11.59375 -2.9375 11.359375 -2.25 10.890625 -1.65625 C 10.429688 -1.0625 9.800781 -0.597656 9 -0.265625 C 8.195312 0.0664062 7.28125 0.234375 6.25 0.234375 C 4.65625 0.234375 3.382812 -0.0976562 2.4375 -0.765625 C 1.5 -1.429688 0.953125 -2.335938 0.796875 -3.484375 L 4.078125 -3.65625 C 4.179688 -3.164062 4.421875 -2.796875 4.796875 -2.546875 C 5.171875 -2.296875 5.65625 -2.171875 6.25 -2.171875 C 6.832031 -2.171875 7.300781 -2.285156 7.65625 -2.515625 C 8.019531 -2.742188 8.203125 -3.035156 8.203125 -3.390625 C 8.191406 -3.984375 7.679688 -4.378906 6.671875 -4.578125 L 4.59375 -5 C 2.269531 -5.457031 1.113281 -6.597656 1.125 -8.421875 C 1.113281 -9.578125 1.570312 -10.488281 2.5 -11.15625 C 3.4375 -11.820312 4.671875 -12.15625 6.203125 -12.15625 C 7.722656 -12.15625 8.914062 -11.832031 9.78125 -11.1875 C 10.65625 -10.550781 11.164062 -9.679688 11.3125 -8.578125 Z M 11.3125 -8.578125 "/></g></g><g style="fill:#f8f7ff;fill-opacity:1;"><g transform="translate(103.719928, 120.372179)"><path style="stroke:none" d="M 53.375 19.265625 L 65.234375 19.265625 L 113.859375 114.75 L 94.875 114.75 L 59.890625 42.109375 L 58.703125 42.109375 L 23.71875 114.75 L 4.75 114.75 Z M 53.375 19.265625 "/></g></g><g clip-rule="nonzero" clip-path="url(#18b3a0f4f4)"><path style=" stroke:none;fill-rule:nonzero;fill:#f8f7ff;fill-opacity:1;" d="M 254.238281 124.894531 C 256.117188 124.894531 257.808594 125.648438 259.011719 126.886719 C 260.25 128.089844 261.003906 129.78125 261.003906 131.621094 C 261.003906 133.5 260.25 135.191406 259.011719 136.394531 C 257.808594 137.632812 256.117188 138.386719 254.238281 138.386719 C 252.398438 138.386719 250.707031 137.632812 249.46875 136.394531 C 248.265625 135.191406 247.511719 133.5 247.511719 131.621094 C 247.511719 129.78125 248.265625 128.089844 249.46875 126.886719 C 250.707031 125.648438 252.398438 124.894531 254.238281 124.894531 Z M 257.394531 128.464844 C 256.605469 127.675781 255.480469 127.1875 254.238281 127.1875 C 253 127.1875 251.910156 127.675781 251.082031 128.464844 C 250.292969 129.292969 249.769531 130.417969 249.769531 131.621094 C 249.769531 132.863281 250.292969 133.988281 251.082031 134.777344 C 251.910156 135.605469 253 136.09375 254.238281 136.09375 C 255.480469 136.09375 256.605469 135.605469 257.394531 134.777344 C 258.222656 133.988281 258.710938 132.863281 258.710938 131.621094 C 258.710938 130.417969 258.222656 129.292969 257.394531 128.464844 Z M 257.394531 128.464844 "/></g><path style=" stroke:none;fill-rule:nonzero;fill:#f8f7ff;fill-opacity:1;" d="M 174.234375 153.980469 L 191.445312 129.066406 L 192.875 129.027344 C 216.585938 128.839844 235.375 128.726562 249.957031 128.691406 L 249.957031 134.289062 C 235.714844 134.328125 217.414062 134.441406 194.378906 134.628906 L 176.640625 160.332031 Z M 174.234375 153.980469 "/><path style=" stroke:none;fill-rule:nonzero;fill:#f8f7ff;fill-opacity:1;" d="M 238.230469 136.019531 C 240.074219 136.019531 241.761719 136.769531 242.964844 138.011719 C 244.207031 139.210938 244.957031 140.902344 244.957031 142.78125 C 244.957031 144.625 244.207031 146.316406 242.964844 147.515625 C 241.761719 148.757812 240.074219 149.507812 238.230469 149.507812 C 236.351562 149.507812 234.660156 148.757812 233.457031 147.515625 C 232.21875 146.316406 231.46875 144.625 231.46875 142.78125 C 231.46875 140.902344 232.21875 139.210938 233.457031 138.011719 C 234.660156 136.769531 236.351562 136.019531 238.230469 136.019531 Z M 241.386719 139.625 C 240.5625 138.800781 239.433594 138.3125 238.230469 138.3125 C 236.992188 138.3125 235.863281 138.800781 235.074219 139.589844 C 234.246094 140.414062 233.757812 141.542969 233.757812 142.78125 C 233.757812 143.984375 234.246094 145.113281 235.074219 145.9375 C 235.863281 146.726562 236.992188 147.214844 238.230469 147.214844 C 239.433594 147.214844 240.5625 146.726562 241.386719 145.9375 C 242.175781 145.113281 242.664062 143.984375 242.664062 142.78125 C 242.664062 141.542969 242.175781 140.414062 241.386719 139.625 Z M 241.386719 139.625 "/><path style=" stroke:none;fill-rule:nonzero;fill:#f8f7ff;fill-opacity:1;" d="M 179.460938 167.695312 L 197.871094 141.015625 L 199.339844 140.980469 C 211.738281 140.902344 222.785156 140.789062 232.59375 140.753906 L 232.59375 146.351562 C 223.164062 146.390625 212.640625 146.464844 200.839844 146.578125 L 181.863281 174.046875 Z M 179.460938 167.695312 "/><path style=" stroke:none;fill-rule:nonzero;fill:#f8f7ff;fill-opacity:1;" d="M 267.957031 149.621094 C 269.796875 149.621094 271.488281 150.375 272.691406 151.574219 C 273.929688 152.816406 274.683594 154.46875 274.683594 156.347656 C 274.683594 158.1875 273.929688 159.878906 272.691406 161.121094 C 271.488281 162.324219 269.796875 163.074219 267.957031 163.074219 C 266.078125 163.074219 264.386719 162.324219 263.183594 161.121094 C 261.941406 159.878906 261.191406 158.1875 261.191406 156.347656 C 261.191406 154.46875 261.941406 152.816406 263.183594 151.574219 C 264.386719 150.375 266.078125 149.621094 267.957031 149.621094 Z M 271.113281 153.191406 C 270.285156 152.363281 269.15625 151.875 267.957031 151.875 C 266.714844 151.875 265.585938 152.363281 264.761719 153.191406 C 263.972656 153.980469 263.484375 155.109375 263.484375 156.347656 C 263.484375 157.589844 263.972656 158.714844 264.761719 159.503906 C 265.585938 160.292969 266.714844 160.820312 267.957031 160.820312 C 269.15625 160.820312 270.285156 160.292969 271.113281 159.503906 C 271.902344 158.714844 272.390625 157.589844 272.390625 156.347656 C 272.390625 155.109375 271.902344 153.980469 271.113281 153.191406 Z M 271.113281 153.191406 "/><path style=" stroke:none;fill-rule:nonzero;fill:#f8f7ff;fill-opacity:1;" d="M 185.171875 182.691406 L 205.125 153.753906 L 206.589844 153.753906 C 230.265625 153.566406 249.054688 153.453125 263.632812 153.378906 L 263.632812 158.976562 C 249.390625 159.054688 231.128906 159.128906 208.09375 159.316406 L 187.578125 189.078125 Z M 185.171875 182.691406 "/><g clip-rule="nonzero" clip-path="url(#48ab8baaa8)"><path style=" stroke:none;fill-rule:nonzero;fill:#f8f7ff;fill-opacity:1;" d="M 145.5625 228.382812 C 143.683594 228.382812 141.996094 227.632812 140.792969 226.394531 C 139.550781 225.191406 138.800781 223.5 138.800781 221.621094 C 138.800781 219.78125 139.550781 218.089844 140.792969 216.886719 C 141.996094 215.644531 143.683594 214.894531 145.5625 214.894531 C 147.40625 214.894531 149.097656 215.644531 150.300781 216.886719 L 150.335938 216.886719 C 151.539062 218.089844 152.289062 219.78125 152.289062 221.621094 C 152.289062 223.5 151.539062 225.191406 150.335938 226.394531 C 149.097656 227.632812 147.40625 228.382812 145.5625 228.382812 Z M 142.40625 224.777344 C 143.195312 225.605469 144.324219 226.09375 145.5625 226.09375 C 146.804688 226.09375 147.894531 225.605469 148.722656 224.816406 C 149.511719 223.988281 150 222.859375 150 221.621094 C 150 220.417969 149.511719 219.289062 148.722656 218.464844 C 147.894531 217.675781 146.804688 217.1875 145.5625 217.1875 C 144.324219 217.1875 143.195312 217.675781 142.40625 218.464844 C 141.582031 219.289062 141.09375 220.417969 141.09375 221.621094 C 141.09375 222.859375 141.582031 223.988281 142.40625 224.777344 Z M 142.40625 224.777344 "/></g><path style=" stroke:none;fill-rule:nonzero;fill:#f8f7ff;fill-opacity:1;" d="M 225.566406 199.300781 L 208.355469 224.214844 L 206.929688 224.25 C 183.21875 224.4375 164.429688 224.550781 149.847656 224.589844 L 149.847656 218.988281 C 164.089844 218.953125 182.390625 218.839844 205.425781 218.652344 L 223.125 192.949219 Z M 225.566406 199.300781 "/><path style=" stroke:none;fill-rule:nonzero;fill:#f8f7ff;fill-opacity:1;" d="M 161.574219 217.261719 C 159.730469 217.261719 158.039062 216.511719 156.800781 215.269531 C 155.597656 214.066406 154.847656 212.375 154.847656 210.496094 C 154.847656 208.65625 155.597656 206.964844 156.800781 205.761719 C 158.039062 204.523438 159.730469 203.769531 161.574219 203.769531 C 163.453125 203.769531 165.140625 204.523438 166.34375 205.726562 L 166.34375 205.761719 C 167.585938 206.964844 168.335938 208.65625 168.335938 210.496094 C 168.335938 212.375 167.585938 214.066406 166.34375 215.269531 C 165.140625 216.511719 163.453125 217.261719 161.574219 217.261719 Z M 158.414062 213.652344 C 159.242188 214.480469 160.371094 214.96875 161.574219 214.96875 C 162.8125 214.96875 163.941406 214.480469 164.730469 213.652344 C 165.554688 212.863281 166.042969 211.738281 166.042969 210.496094 C 166.042969 209.257812 165.554688 208.167969 164.730469 207.339844 C 163.941406 206.550781 162.8125 206.0625 161.574219 206.0625 C 160.371094 206.0625 159.242188 206.550781 158.414062 207.339844 C 157.625 208.167969 157.136719 209.257812 157.136719 210.496094 C 157.136719 211.738281 157.625 212.863281 158.414062 213.652344 Z M 158.414062 213.652344 "/><path style=" stroke:none;fill-rule:nonzero;fill:#f8f7ff;fill-opacity:1;" d="M 220.34375 185.582031 L 201.929688 212.265625 L 200.464844 212.300781 C 188.066406 212.375 177.015625 212.453125 167.210938 212.527344 L 167.210938 206.925781 C 176.640625 206.890625 187.164062 206.816406 198.960938 206.703125 L 217.9375 179.234375 Z M 220.34375 185.582031 "/><g clip-rule="nonzero" clip-path="url(#927df9d530)"><path style=" stroke:none;fill-rule:nonzero;fill:#f8f7ff;fill-opacity:1;" d="M 131.847656 203.660156 C 130.007812 203.660156 128.316406 202.90625 127.113281 201.703125 C 125.875 200.464844 125.121094 198.773438 125.121094 196.933594 C 125.121094 195.054688 125.875 193.398438 127.113281 192.160156 C 128.316406 190.957031 130.007812 190.207031 131.847656 190.207031 C 133.726562 190.207031 135.417969 190.957031 136.621094 192.160156 C 137.859375 193.398438 138.613281 195.054688 138.613281 196.933594 C 138.613281 198.773438 137.859375 200.464844 136.621094 201.703125 C 135.417969 202.90625 133.726562 203.660156 131.847656 203.660156 Z M 128.691406 200.089844 C 129.519531 200.878906 130.644531 201.402344 131.847656 201.402344 C 133.089844 201.402344 134.214844 200.878906 135.003906 200.089844 C 135.832031 199.261719 136.320312 198.171875 136.320312 196.933594 C 136.320312 195.691406 135.832031 194.566406 135.003906 193.777344 C 134.214844 192.949219 133.089844 192.460938 131.847656 192.460938 C 130.644531 192.460938 129.519531 192.949219 128.691406 193.777344 C 127.902344 194.566406 127.414062 195.691406 127.414062 196.933594 C 127.414062 198.171875 127.902344 199.261719 128.691406 200.089844 Z M 128.691406 200.089844 "/></g><path style=" stroke:none;fill-rule:nonzero;fill:#f8f7ff;fill-opacity:1;" d="M 214.632812 170.550781 L 194.679688 199.523438 L 193.214844 199.523438 C 169.539062 199.710938 150.75 199.824219 136.132812 199.902344 L 136.132812 194.300781 C 150.410156 194.226562 168.675781 194.113281 191.710938 193.925781 L 212.226562 164.203125 Z M 214.632812 170.550781 "/><g clip-rule="nonzero" clip-path="url(#e47480df76)"><g clip-rule="nonzero" clip-path="url(#b606fe00af)"><path style=" stroke:none;fill-rule:nonzero;fill:#f8f7ff;fill-opacity:1;" d="M 156.371094 129.332031 L 169.496094 129.332031 L 169.496094 140.535156 L 156.371094 140.535156 Z M 156.371094 129.332031 "/></g></g></g></svg>